<?xml version="1.0" standalone="no"?>
<!DOCTYPE svg PUBLIC "-//W3C//DTD SVG 20010904//EN"
 "http://www.w3.org/TR/2001/REC-SVG-20010904/DTD/svg10.dtd">
<svg version="1.0" xmlns="http://www.w3.org/2000/svg"
 width="900.000000pt" height="696.000000pt" viewBox="0 0 900.000000 696.000000"
 preserveAspectRatio="xMidYMid meet">
<metadata>
Created by potrace 1.16, written by Peter Selinger 2001-2019
</metadata>
<g transform="translate(0.000000,696.000000) scale(0.100000,-0.100000)"
fill="#000000" stroke="none">
<path d="M4462 6708 c-18 -139 -45 -368 -62 -508 -70 -587 -128 -1009 -186
-1346 l-18 -101 61 -94 c76 -119 96 -157 87 -171 -4 -7 -3 -8 4 -4 14 9 76
-110 68 -131 -3 -8 -2 -12 3 -9 4 3 25 -31 45 -76 l37 -82 44 99 c25 55 45
101 45 103 0 2 4 0 10 -3 5 -3 7 0 4 9 -7 18 14 59 26 51 6 -3 7 0 5 7 -6 14
75 161 134 245 l37 52 -28 163 c-46 263 -103 680 -163 1178 -31 256 -67 549
-80 652 -14 103 -25 194 -25 202 0 9 -4 16 -8 16 -5 0 -22 -114 -40 -252z"/>
<path d="M1076 6521 c-4 -6 -11 -9 -16 -6 -5 3 -12 0 -16 -6 -5 -8 -3 -9 6 -4
8 5 11 3 8 -6 -3 -8 -10 -14 -15 -14 -6 0 -15 -4 -20 -9 -5 -5 -3 -6 5 -2 20
12 15 2 -52 -95 -141 -209 -259 -437 -321 -622 -166 -495 -86 -895 257 -1287
45 -52 75 -89 66 -82 -11 9 -18 10 -23 2 -3 -5 0 -10 7 -10 7 0 -28 -18 -79
-39 -224 -93 -448 -278 -584 -479 -27 -41 -49 -68 -49 -62 0 37 57 258 87 340
36 97 139 309 168 345 15 18 15 17 0 -12 -8 -18 -13 -33 -11 -33 10 0 33 55
29 67 -2 7 -11 9 -20 6 -12 -5 -14 -3 -8 8 14 22 -84 -63 -135 -118 -65 -69
-97 -107 -83 -99 21 12 15 1 -31 -66 -24 -35 -51 -78 -60 -96 -9 -18 -21 -30
-26 -27 -6 4 -7 -1 -3 -11 4 -12 3 -15 -5 -10 -8 5 -10 1 -5 -10 4 -12 3 -15
-5 -10 -8 5 -10 1 -5 -10 5 -13 3 -15 -7 -9 -9 5 -11 4 -6 -4 4 -6 -5 -42 -20
-79 -83 -205 -106 -359 -102 -667 1 -132 5 -226 8 -210 4 23 10 6 24 -68 10
-55 41 -163 68 -240 28 -78 51 -152 51 -164 1 -11 5 -19 10 -16 4 2 7 -1 7 -6
0 -6 5 -11 10 -11 6 0 10 35 10 84 0 47 7 138 15 202 55 415 207 766 438 1010
98 104 228 208 201 162 -4 -8 -3 -10 2 -5 5 5 9 14 9 20 0 19 184 106 272 128
l82 20 51 -26 c31 -16 48 -30 44 -37 -4 -7 -3 -8 4 -4 16 10 174 -72 166 -86
-4 -6 -3 -8 4 -4 6 3 44 -10 84 -30 l74 -36 -1 -202 c0 -161 4 -217 19 -281
24 -108 68 -219 111 -283 38 -58 42 -67 23 -56 -9 5 -9 2 1 -9 16 -20 26 -23
15 -4 -5 8 -2 8 9 -2 20 -16 23 -35 5 -26 -26 13 130 -131 161 -148 48 -28 37
-14 -21 26 -29 20 -71 55 -93 78 -40 43 -40 43 15 -5 164 -144 317 -203 553
-213 77 -4 127 -2 127 4 0 5 -33 19 -72 32 -141 45 -327 145 -368 197 -13 17
-12 16 10 -1 14 -11 -7 15 -47 57 -40 42 -79 91 -88 107 -8 17 -18 31 -21 31
-7 0 15 -40 48 -85 l30 -40 -36 40 c-20 22 -51 72 -70 110 -52 105 -69 183
-69 310 -1 308 159 529 451 622 254 81 520 2 763 -225 70 -66 199 -218 208
-245 2 -7 -13 9 -33 36 -20 26 -39 47 -42 47 -7 0 67 -95 74 -95 4 0 13 -4 20
-8 17 -12 16 16 -7 106 -41 160 -119 306 -231 432 l-53 60 54 -55 c30 -30 67
-71 82 -90 25 -30 24 -29 -3 11 -28 42 -152 171 -136 142 12 -21 -1 -15 -51
24 -65 49 -213 117 -298 136 -112 25 -178 29 -282 17 -155 -18 -299 -72 -443
-165 l-65 -42 -130 57 c-222 97 -440 214 -430 230 3 5 0 12 -6 16 -8 5 -9 3
-4 -6 5 -8 3 -11 -6 -8 -8 3 -14 10 -14 15 0 6 -4 15 -9 20 -5 5 -6 3 -2 -4
14 -25 -7 -12 -89 51 -195 153 -322 343 -377 562 -29 118 -31 352 -3 494 22
116 70 281 120 415 42 111 146 338 152 331 2 -2 -12 -36 -31 -75 -20 -39 -36
-74 -36 -78 1 -5 19 27 41 70 28 55 37 82 31 94 -7 11 -11 12 -16 4z"/>
<path d="M7906 6514 c-4 -10 -2 -13 6 -8 8 5 9 2 5 -10 -5 -11 -3 -15 5 -10 8
5 9 2 5 -10 -4 -9 -3 -15 2 -12 20 13 164 -340 216 -529 106 -389 78 -707 -86
-960 -71 -110 -220 -254 -353 -342 -121 -81 -311 -181 -480 -252 l-112 -48
-50 34 c-75 52 -190 108 -282 137 -414 131 -834 -54 -1023 -452 -43 -90 -98
-286 -84 -299 4 -5 10 -2 13 6 8 24 158 205 213 257 121 114 250 192 389 236
106 33 264 33 370 0 179 -56 328 -172 393 -304 52 -107 71 -194 71 -323 0
-127 -17 -205 -69 -310 -35 -72 -138 -205 -165 -213 -8 -3 9 20 39 50 29 31
62 71 73 89 12 21 12 24 2 9 -10 -14 -58 -65 -108 -115 -53 -53 -74 -78 -51
-62 l40 29 -40 -36 c-54 -48 -211 -128 -317 -162 -49 -15 -88 -32 -88 -37 0
-17 248 0 335 22 271 71 463 255 548 526 39 125 51 229 45 410 l-6 162 85 42
c46 23 89 38 95 35 7 -4 8 -2 4 4 -8 14 150 96 166 86 7 -4 8 -3 4 4 -4 7 10
20 34 32 l41 21 82 -21 c355 -89 676 -438 830 -900 64 -191 106 -435 107 -607
0 -94 10 -116 28 -65 6 15 25 63 42 107 41 106 86 277 105 400 12 76 16 157
13 345 -1 135 -5 232 -8 215 -5 -25 -7 -19 -18 37 -16 88 -63 229 -107 324
-19 42 -32 81 -28 87 3 5 1 7 -5 4 -5 -4 -22 14 -38 40 -51 89 -107 158 -203
253 -53 52 -78 81 -56 63 42 -32 137 -130 194 -198 29 -36 30 -37 9 -5 -29 44
-150 172 -199 211 -34 27 -39 28 -53 13 -12 -12 -13 -20 -5 -35 5 -11 14 -17
19 -14 12 8 63 -93 54 -107 -4 -7 -3 -8 4 -4 14 9 68 -104 117 -246 34 -96 81
-295 73 -304 -3 -2 -23 22 -44 53 -46 69 -51 78 -33 68 8 -5 5 1 -5 13 -23 26
-34 29 -15 5 11 -15 10 -14 -9 1 -23 20 -30 42 -9 30 20 -11 -144 154 -188
189 -21 18 -36 26 -32 20 5 -7 6 -13 3 -13 -11 0 -91 62 -91 70 0 5 -4 12 -9
17 -5 5 -6 3 -2 -4 11 -19 3 -16 -61 22 -33 19 -97 51 -144 71 -46 19 -70 33
-54 30 l30 -6 -25 14 c-19 11 -28 12 -40 3 -8 -7 23 30 68 81 346 395 426 808
252 1307 -40 115 -162 364 -234 479 -60 94 -63 101 -43 90 7 -4 9 -3 4 2 -5 5
-14 9 -19 9 -6 0 -13 6 -16 14 -3 9 0 11 8 6 9 -5 11 -4 6 4 -4 6 -11 9 -16 6
-10 -6 -75 93 -75 115 0 8 -5 15 -10 15 -6 0 -15 4 -21 8 -7 4 -15 0 -18 -9z"/>
<path d="M4060 5537 c0 -322 -39 -549 -125 -723 -40 -82 -124 -194 -145 -194
-5 0 12 22 38 49 41 42 90 111 79 111 -2 0 -21 -25 -41 -54 -21 -30 -53 -67
-73 -81 -19 -15 -32 -29 -29 -32 3 -3 1 -14 -4 -24 -8 -14 -6 -20 12 -29 23
-11 23 -11 3 6 -43 36 16 4 108 -58 95 -65 241 -202 267 -252 l15 -29 -121
-116 c-128 -124 -310 -261 -278 -209 4 7 3 8 -5 4 -6 -4 -9 -12 -6 -17 4 -5 2
-9 -3 -9 -6 0 -13 -7 -16 -16 -4 -10 -2 -13 6 -8 8 5 9 2 5 -10 -5 -11 -3 -15
5 -10 8 5 9 2 5 -10 -5 -11 -3 -15 5 -10 8 5 9 2 5 -10 -5 -11 -3 -15 5 -10 8
5 9 2 5 -10 -4 -9 -3 -15 2 -12 5 3 32 -36 61 -87 29 -50 74 -122 101 -159 50
-70 58 -85 37 -71 -18 10 47 -71 69 -88 10 -7 7 0 -8 16 -50 59 -51 69 -1 15
51 -55 68 -85 35 -59 -10 7 11 -18 47 -55 68 -71 189 -180 176 -158 -13 21 3
13 54 -27 l50 -40 -80 -60 c-91 -68 -215 -145 -228 -139 -4 1 -42 41 -83 88
-91 103 -243 239 -361 322 -48 34 -85 65 -82 69 2 4 -1 11 -7 15 -8 5 -9 3 -4
-6 5 -8 3 -11 -6 -8 -8 3 -14 10 -14 16 0 5 -4 14 -9 19 -5 5 -6 3 -2 -4 11
-20 1 -16 -56 21 -29 18 -92 55 -141 81 -48 26 -85 51 -82 56 4 5 -2 6 -11 2
-12 -4 -15 -3 -10 5 5 8 1 10 -10 5 -12 -4 -15 -3 -10 5 5 8 1 10 -10 5 -12
-4 -15 -3 -10 5 4 7 2 10 -6 7 -8 -3 -56 14 -108 39 -144 66 -306 128 -505
191 -99 31 -198 63 -220 71 l-40 14 35 -5 c32 -4 33 -4 9 5 -16 7 -34 7 -50 1
-23 -9 -23 -10 16 -26 148 -62 244 -109 239 -116 -3 -5 1 -6 9 -3 28 10 391
-183 605 -322 121 -79 306 -216 318 -236 4 -6 -33 19 -82 57 -102 79 -124 94
-109 78 17 -19 207 -164 200 -153 -3 5 -1 10 4 10 19 0 297 -283 359 -367 62
-82 72 -100 50 -87 -8 4 -10 3 -5 -2 5 -5 13 -9 19 -9 15 0 114 -180 149 -270
98 -253 112 -491 44 -732 -41 -142 -163 -381 -189 -369 -240 106 -321 128
-454 124 l-87 -3 79 -38 c266 -127 517 -337 689 -577 77 -109 202 -353 247
-485 33 -96 90 -309 90 -337 0 -49 18 -4 48 119 36 149 81 279 144 413 52 113
128 241 138 235 5 -3 12 0 16 6 5 8 3 9 -6 4 -8 -5 -11 -3 -8 6 3 8 10 14 15
14 6 0 15 4 20 9 5 5 3 6 -4 2 -25 -14 -12 7 51 88 107 136 349 357 375 342 5
-4 13 -1 17 5 5 8 3 9 -6 4 -8 -5 -11 -4 -7 2 13 21 146 95 158 87 8 -4 9 -3
5 5 -5 8 22 26 81 54 l88 42 -85 3 c-100 3 -202 -17 -307 -60 -40 -16 -78 -26
-84 -22 -8 5 -9 3 -4 -6 6 -10 4 -12 -9 -7 -11 5 -15 3 -10 -5 5 -8 2 -9 -9
-5 -10 4 -16 2 -14 -5 1 -7 -5 -13 -14 -15 -33 -8 -148 215 -194 371 -14 49
-31 142 -37 207 -26 256 50 527 221 787 33 50 63 92 66 92 4 0 3 -5 0 -10 -10
-16 1 -11 16 7 10 11 10 14 2 9 -27 -15 -11 9 59 91 132 156 334 332 558 485
135 93 372 229 388 223 7 -2 10 0 7 5 -11 18 474 246 502 236 8 -3 12 -2 9 3
-3 4 7 14 22 21 25 12 26 13 7 21 -27 10 -43 11 -27 0 9 -5 -8 -14 -50 -25
-484 -134 -996 -371 -1301 -602 -59 -46 -73 -53 -61 -31 4 6 -2 3 -14 -7 -26
-23 -29 -34 -4 -15 14 11 13 10 -2 -9 -20 -23 -43 -31 -29 -9 18 29 -119 -97
-212 -197 -96 -101 -104 -107 -126 -96 -23 11 -23 10 -5 -4 28 -22 33 -21 69
22 63 74 173 185 222 224 28 22 9 2 -40 -44 -50 -47 -117 -117 -150 -157 -32
-39 -63 -71 -68 -71 -17 0 -147 82 -142 90 3 5 0 12 -6 16 -8 4 -9 3 -5 -4 14
-23 -6 -12 -80 44 l-74 56 24 19 c28 22 41 25 29 7 -14 -23 80 56 171 142 76
74 179 189 226 255 27 38 -13 -6 -83 -91 -71 -87 -225 -238 -279 -274 -19 -12
-12 -4 17 22 163 140 280 272 388 434 64 98 173 292 166 298 -2 2 -29 19 -59
38 -84 53 -196 147 -283 237 l-79 80 19 33 c33 59 177 191 281 258 69 45 100
70 98 82 -1 9 -25 40 -54 68 -28 29 -68 85 -89 125 -21 41 -39 72 -41 70 -11
-11 79 -154 127 -203 37 -38 45 -49 23 -33 -40 28 -101 108 -136 178 -81 163
-116 351 -123 676 -3 130 -9 237 -13 237 -13 0 -88 -240 -105 -335 -21 -118
-21 -332 0 -450 9 -49 32 -139 53 -199 l37 -110 -76 -75 c-41 -42 -88 -92
-103 -111 -15 -19 -24 -29 -20 -21 5 9 3 12 -4 7 -6 -4 -9 -12 -6 -19 2 -7 -3
-21 -11 -32 -15 -19 -16 -19 -5 5 10 23 10 24 -4 7 -8 -11 -12 -26 -9 -35 4
-10 2 -13 -5 -8 -8 5 -10 1 -5 -10 4 -12 3 -15 -5 -10 -8 5 -10 1 -5 -10 5
-13 3 -15 -7 -9 -9 5 -11 4 -6 -3 4 -7 -5 -44 -19 -84 -45 -125 -65 -276 -65
-491 0 -106 3 -209 6 -229 7 -43 24 -41 24 2 0 65 58 318 106 459 6 19 226
-198 221 -219 -2 -8 -8 -14 -15 -13 -6 2 -9 -3 -6 -10 9 -23 -201 -361 -239
-383 -9 -6 -9 -4 -1 7 42 54 107 147 115 164 6 13 3 11 -8 -5 -10 -13 -44 -60
-76 -103 -32 -44 -54 -76 -48 -72 29 17 4 -18 -64 -90 l-75 -80 -54 57 c-64
67 -190 227 -184 233 2 3 23 -21 45 -53 50 -70 182 -222 193 -222 4 0 36 33
70 73 l62 72 -66 -70 -66 -70 -50 55 c-28 30 -80 94 -117 142 -36 48 -70 86
-76 85 -5 -1 -12 4 -15 12 -3 9 0 11 8 6 9 -5 11 -4 6 4 -4 6 -11 9 -16 6 -8
-5 -94 134 -140 224 l-22 44 108 108 c60 60 112 105 116 101 22 -22 108 -394
108 -468 0 -37 15 -46 25 -14 14 44 7 434 -9 535 -37 225 -111 378 -251 523
-55 56 -88 97 -84 105 19 34 69 204 84 287 24 125 24 333 1 458 -22 120 -91
332 -108 332 -4 0 -8 -82 -8 -183z m531 -2598 c50 -29 86 -56 82 -62 -3 -6 -1
-7 5 -3 8 5 161 -62 180 -79 8 -7 -20 -45 -28 -40 -5 3 -12 0 -16 -6 -4 -8 -3
-9 4 -5 18 11 16 5 -37 -82 -104 -173 -172 -388 -192 -604 -24 -260 34 -551
166 -835 l48 -102 -64 -69 c-35 -38 -95 -121 -133 -185 -38 -64 -74 -113 -79
-110 -6 3 -7 1 -3 -5 6 -11 -12 -62 -23 -62 -3 0 -22 30 -41 67 -51 97 -161
261 -215 318 l-46 49 45 96 c87 186 145 388 165 572 15 131 14 196 -4 331 -27
204 -92 386 -206 572 -32 54 -58 99 -57 100 2 2 48 25 103 53 55 28 134 71
175 96 41 25 77 46 79 46 2 0 43 -23 92 -51z"/>
<path d="M2510 3468 c0 -4 6 -8 13 -8 24 0 123 -74 195 -147 155 -157 300
-444 353 -701 7 -34 17 -62 21 -62 4 0 8 97 8 216 l0 215 58 -31 c129 -68 282
-224 282 -285 0 -38 -3 -42 -75 -97 -407 -310 -564 -693 -434 -1057 17 -48 31
-96 32 -108 1 -11 6 -19 11 -15 5 3 6 -2 3 -12 -5 -11 -3 -15 5 -10 8 5 9 2 5
-10 -4 -9 -3 -15 2 -12 5 4 22 -18 39 -46 52 -93 152 -220 271 -343 l115 -120
-120 120 c-66 66 -137 140 -158 165 -26 31 -23 26 8 -15 25 -33 94 -108 153
-168 96 -95 111 -106 126 -95 17 12 16 17 -13 71 -18 31 -34 57 -37 57 -2 0 9
-26 26 -57 17 -31 29 -58 27 -60 -7 -8 -67 118 -60 129 4 7 3 8 -4 4 -14 -8
-66 90 -58 111 3 8 2 12 -3 9 -11 -7 -64 112 -107 239 -88 263 -84 490 12 653
25 43 28 44 41 26 8 -10 12 -27 10 -36 -3 -10 -1 -16 3 -15 7 2 80 -98 80
-110 0 -2 -6 -1 -12 2 -7 4 11 -17 41 -45 50 -48 135 -100 163 -100 7 0 -14
13 -47 29 -33 15 -80 47 -105 70 l-45 42 55 -43 c144 -113 313 -128 498 -43
76 35 65 50 -39 51 l-84 1 85 -7 85 -6 -80 -2 c-206 -5 -346 91 -391 268 -35
139 13 283 105 311 32 10 45 8 89 -11 29 -12 68 -40 88 -62 51 -57 115 -160
109 -176 -2 -7 0 -10 5 -7 12 7 73 -123 66 -140 -2 -6 4 -11 13 -12 15 -1 17
7 13 60 -15 253 -125 533 -288 734 -35 43 -43 60 -21 47 27 -17 -101 122 -171
184 -81 73 -239 195 -275 212 -19 9 -18 8 3 -7 105 -75 226 -172 285 -228 l70
-67 -73 64 c-153 132 -294 233 -400 287 -26 13 -40 26 -36 33 4 6 3 8 -4 4
-14 -9 -83 25 -75 37 3 6 1 7 -5 3 -7 -4 -62 13 -124 38 -62 25 -144 53 -181
63 -40 10 -61 20 -52 23 9 3 -9 6 -39 6 -31 0 -56 -4 -56 -8z"/>
<path d="M6394 3472 c11 -2 -27 -19 -85 -36 -57 -18 -143 -49 -191 -70 -48
-21 -93 -34 -99 -30 -8 5 -9 3 -4 -6 6 -10 4 -12 -9 -7 -11 5 -15 3 -10 -5 5
-8 2 -9 -9 -5 -9 3 -16 2 -14 -3 1 -5 -40 -33 -90 -62 -135 -78 -254 -168
-377 -288 -108 -104 -238 -265 -276 -341 -12 -22 -24 -38 -28 -35 -4 2 -8 -3
-9 -12 0 -9 -19 -59 -42 -110 -23 -52 -53 -137 -66 -190 -25 -95 -48 -295 -34
-290 4 2 35 57 68 123 76 153 138 230 214 269 53 27 60 28 97 17 79 -23 128
-133 117 -258 -19 -201 -176 -326 -402 -321 l-80 2 85 6 85 7 -85 -1 c-69 -1
-85 -4 -85 -16 0 -9 32 -28 85 -50 78 -32 93 -35 190 -35 95 0 111 3 167 29
35 16 68 35 74 42 14 17 32 18 24 2 -4 -7 19 13 49 45 31 32 54 62 51 67 -2 4
10 36 27 70 36 70 37 69 84 -22 108 -212 58 -531 -149 -938 -37 -74 -73 -139
-79 -145 -5 -5 -1 9 11 32 12 24 19 43 16 43 -2 0 -13 -17 -24 -38 -13 -26
-16 -44 -10 -60 9 -23 10 -22 68 29 84 73 298 319 278 319 -2 0 -22 -24 -44
-52 -56 -75 -169 -197 -239 -260 -32 -29 -5 4 61 72 66 69 144 158 174 197 30
40 56 73 58 73 2 0 1 -5 -3 -12 -4 -7 -3 -8 5 -4 6 4 9 11 6 16 -3 5 17 47 43
94 58 101 108 244 123 352 25 180 -29 382 -147 552 -46 66 -52 78 -31 65 25
-15 -55 75 -135 152 -96 93 -144 135 -134 118 13 -23 -6 -14 -55 28 -34 29
-49 48 -49 65 0 30 22 75 47 95 17 13 17 13 4 -6 -7 -11 6 1 30 26 24 25 71
68 104 94 68 54 76 62 55 50 -33 -18 -107 -80 -142 -119 -21 -22 -38 -36 -38
-29 0 20 122 123 200 169 l75 44 5 -222 c3 -123 8 -216 12 -208 3 8 12 40 19
70 44 198 158 452 267 595 71 94 188 200 254 232 21 10 38 20 38 23 0 3 -26 6
-57 6 -32 0 -49 -2 -39 -4z"/>
</g>
</svg>
